<svg width="14" height="13" viewBox="0 0 14 13" fill="none" xmlns="http://www.w3.org/2000/svg">
<path d="M0.481583 11.458C0.182255 11.7443 0.171705 12.2191 0.458019 12.5184C0.744332 12.8177 1.21909 12.8283 1.51842 12.542L0.481583 11.458ZM13.2498 1.01666C13.259 0.602551 12.9308 0.259388 12.5167 0.250185L5.76833 0.100222C5.35422 0.0910197 5.01105 0.419263 5.00185 0.833374C4.99265 1.24749 5.32089 1.59065 5.735 1.59985L11.7335 1.73315L11.6002 7.73167C11.591 8.14578 11.9193 8.48895 12.3334 8.49815C12.7475 8.50735 13.0906 8.17911 13.0999 7.765L13.2498 1.01666ZM1.51842 12.542L13.0184 1.54198L11.9816 0.458019L0.481583 11.458L1.51842 12.542Z" fill="#FDFDFD"/>
</svg>
