<svg width="20" height="20" viewBox="0 0 20 20" fill="none" xmlns="http://www.w3.org/2000/svg">
<path d="M9.99992 1.875C5.51242 1.875 1.87492 5.5125 1.87492 9.99875C1.87492 11.2956 2.17867 12.5225 2.71992 13.6112L1.65992 16.7906C1.34055 17.7481 2.22992 18.67 3.19805 18.3844L6.60617 17.3825C7.67053 17.872 8.82841 18.1247 9.99992 18.1231C14.4868 18.1231 18.1249 14.4856 18.1249 9.99875C18.1249 5.5125 14.4862 1.875 9.99992 1.875ZM6.8743 8.74937C6.8743 8.58361 6.94014 8.42464 7.05735 8.30743C7.17456 8.19022 7.33354 8.12437 7.4993 8.12437H12.4993C12.6651 8.12437 12.824 8.19022 12.9412 8.30743C13.0584 8.42464 13.1243 8.58361 13.1243 8.74937C13.1243 8.91513 13.0584 9.07411 12.9412 9.19132C12.824 9.30853 12.6651 9.37437 12.4993 9.37437H7.4993C7.33354 9.37437 7.17456 9.30853 7.05735 9.19132C6.94014 9.07411 6.8743 8.91513 6.8743 8.74937ZM7.4993 10.6244H11.2493C11.333 10.6217 11.4164 10.6359 11.4945 10.6661C11.5726 10.6963 11.6438 10.7419 11.704 10.8002C11.7641 10.8585 11.8119 10.9282 11.8446 11.0053C11.8772 11.0824 11.8941 11.1653 11.8941 11.2491C11.8941 11.3328 11.8772 11.4157 11.8446 11.4928C11.8119 11.5699 11.7641 11.6397 11.704 11.6979C11.6438 11.7562 11.5726 11.8018 11.4945 11.832C11.4164 11.8622 11.333 11.8764 11.2493 11.8737H7.4993C7.33354 11.8737 7.17456 11.8079 7.05735 11.6907C6.94014 11.5735 6.8743 11.4145 6.8743 11.2487C6.8743 11.083 6.94014 10.924 7.05735 10.8068C7.17456 10.6896 7.33354 10.6237 7.4993 10.6237V10.6244Z" fill="#FDFDFD"/>
</svg>
