<svg width="20" height="20" viewBox="0 0 20 20" fill="none" xmlns="http://www.w3.org/2000/svg">
<path d="M10.0004 -0.0212402C4.47477 -0.0212402 -0.0214844 4.47376 -0.0214844 10C-0.0214844 15.5263 4.47477 20.0213 10.0004 20.0213C15.526 20.0213 20.0223 15.5263 20.0223 10C20.0223 4.47376 15.526 -0.0212402 10.0004 -0.0212402ZM10.0004 19.3538C4.84289 19.3538 0.647266 15.1575 0.647266 10C0.647266 4.84251 4.84289 0.64626 10.0004 0.64626C15.1579 0.64626 19.3535 4.84251 19.3535 10C19.3535 15.1575 15.1579 19.3538 10.0004 19.3538Z" fill="#61A7F9"/>
<path d="M12.188 4.37503H10.5205C8.39675 4.35378 8.1255 5.66815 8.1255 7.09065V8.12503H7.188C7.14562 8.11936 7.10251 8.12355 7.06202 8.13725C7.02153 8.15096 6.98474 8.17381 6.95451 8.20404C6.92428 8.23427 6.90143 8.27106 6.88772 8.31155C6.87402 8.35204 6.86984 8.39515 6.8755 8.43752V10.3125C6.86984 10.3549 6.87402 10.398 6.88772 10.4385C6.90143 10.479 6.92428 10.5158 6.95451 10.546C6.98474 10.5762 7.02153 10.5991 7.06202 10.6128C7.10251 10.6265 7.14562 10.6307 7.188 10.625H8.1255V15.3125C8.12029 15.355 8.12485 15.3981 8.13884 15.4385C8.15282 15.4789 8.17586 15.5156 8.20619 15.5457C8.23653 15.5759 8.27335 15.5987 8.31385 15.6124C8.35435 15.6262 8.39745 15.6305 8.43987 15.625H10.3492C10.5336 15.6463 10.683 15.4969 10.6242 15.3125L10.6255 10.625H12.188C12.2304 10.6307 12.2735 10.6265 12.314 10.6128C12.3545 10.5991 12.3913 10.5762 12.4215 10.546C12.4517 10.5158 12.4746 10.479 12.4883 10.4385C12.502 10.398 12.5062 10.3549 12.5005 10.3125V8.43752C12.5062 8.39515 12.502 8.35204 12.4883 8.31155C12.4746 8.27106 12.4517 8.23427 12.4215 8.20404C12.3913 8.17381 12.3545 8.15096 12.314 8.13725C12.2735 8.12355 12.2304 8.11936 12.188 8.12503H10.6236L10.6255 7.18753C10.6861 6.78815 10.6861 6.85315 11.0567 6.87503H12.1749C12.2617 6.85565 12.3542 6.86628 12.4192 6.80315C12.4842 6.74003 12.5217 6.65377 12.4999 6.56253V4.68753C12.5056 4.64519 12.5016 4.60209 12.4879 4.56159C12.4743 4.52109 12.4515 4.48428 12.4213 4.45403C12.3911 4.42379 12.3544 4.40092 12.3139 4.38722C12.2734 4.37351 12.2303 4.36934 12.188 4.37503ZM11.8536 6.21503L11.0699 6.18502C10.0992 6.18502 10.018 6.7119 10.018 7.25128L10.0155 8.43628C10.0154 8.48016 10.024 8.52362 10.0407 8.56419C10.0575 8.60475 10.082 8.64162 10.113 8.67268C10.144 8.70373 10.1808 8.72837 10.2214 8.74518C10.2619 8.762 10.3054 8.77065 10.3492 8.77065H11.8755V9.97815H10.3505C10.2619 9.97815 10.177 10.0133 10.1143 10.0759C10.0516 10.1384 10.0163 10.2233 10.0161 10.3119L10.0155 15H8.7505V10.3125C8.7505 10.1281 8.62487 9.97878 8.43987 9.97878H7.5005V8.77128H8.43987C8.48372 8.77134 8.52716 8.76276 8.5677 8.74604C8.60824 8.72931 8.64508 8.70475 8.67612 8.67378C8.73862 8.61065 8.74987 8.52565 8.74987 8.4369V7.09002C8.74987 5.68877 9.03299 5.02128 10.5199 5.02128H11.853V6.21503H11.8536Z" fill="#61A7F9"/>
</svg>
