<svg width="14" height="15" viewBox="0 0 14 15" fill="none" xmlns="http://www.w3.org/2000/svg">
<path d="M8.002 0.388113C7.72668 0.140748 7.36962 0.00390625 6.9995 0.00390625C6.62938 0.00390625 6.27232 0.140748 5.997 0.388113L0.497 5.33011C0.340623 5.47074 0.215564 5.64268 0.129942 5.83477C0.0443201 6.02686 4.81578e-05 6.2348 0 6.44511V13.5001C0 13.8979 0.158035 14.2795 0.43934 14.5608C0.720644 14.8421 1.10218 15.0001 1.5 15.0001H3.5C3.89782 15.0001 4.27936 14.8421 4.56066 14.5608C4.84196 14.2795 5 13.8979 5 13.5001V9.50011C5 9.36751 5.05268 9.24033 5.14645 9.14656C5.24021 9.05279 5.36739 9.00011 5.5 9.00011H8.5C8.63261 9.00011 8.75979 9.05279 8.85355 9.14656C8.94732 9.24033 9 9.36751 9 9.50011V13.5001C9 13.8979 9.15804 14.2795 9.43934 14.5608C9.72064 14.8421 10.1022 15.0001 10.5 15.0001H12.5C12.8978 15.0001 13.2794 14.8421 13.5607 14.5608C13.842 14.2795 14 13.8979 14 13.5001V6.44511C14 6.2348 13.9557 6.02686 13.8701 5.83477C13.7844 5.64268 13.6594 5.47074 13.503 5.33011L8.003 0.388113H8.002Z" fill="#FDFDFD"/>
</svg>
