<svg width="24" height="24" viewBox="0 0 24 24" fill="none" xmlns="http://www.w3.org/2000/svg">
<path d="M12 2L16 7L13 7L13 16H11L11 7L8 7L12 2Z" fill="#F0603F"/>
<path d="M3.00003 13.0007C2.99676 11.8182 3.22814 10.6469 3.6808 9.55447C4.13345 8.46206 4.79837 7.47032 5.63703 6.63672L7.05103 8.05072C5.72903 9.37272 5.00003 11.1307 5.00003 13.0007C5.00003 14.8707 5.72903 16.6287 7.05103 17.9507C8.37303 19.2727 10.131 20.0017 12.001 20.0017C13.871 20.0017 15.629 19.2727 16.951 17.9507C18.273 16.6287 19.002 14.8707 19.002 13.0007C19.002 11.1307 18.273 9.37272 16.951 8.05072L18.365 6.63672C20.065 8.33572 21.002 10.5957 21.002 13.0007C21.002 15.4057 20.065 17.6657 18.365 19.3647C16.666 21.0647 14.406 22.0017 12.001 22.0017C9.59604 22.0017 7.33603 21.0647 5.63703 19.3647C4.79837 18.5311 4.13345 17.5394 3.6808 16.447C3.22814 15.3546 2.99676 14.1832 3.00003 13.0007Z" fill="#F0603F"/>
</svg>
