<svg width="221" height="42" viewBox="0 0 221 42" fill="none" xmlns="http://www.w3.org/2000/svg">
<path d="M0.197021 0.696777H20.717V1.95078H14.675V39.3428H16.727C19.957 39.3428 22.522 38.3548 24.422 36.3788C26.36 34.4028 28.317 31.3628 30.293 27.2588H31.49L30.407 40.5968H0.197021V39.3428H3.56002V1.95078H0.197021V0.696777Z" fill="#FDFDFD"/>
<path d="M47.2888 28.4558C47.2888 31.9518 47.8778 34.6308 49.0558 36.4928C50.2718 38.3548 52.4378 39.2858 55.5538 39.2858C58.6698 39.2858 61.0638 38.3168 62.7358 36.3788C64.4078 34.4408 65.2438 31.4958 65.2438 27.5438V1.77978H61.5388V0.696777H69.8608V1.77978H66.7258V27.1448C66.7258 31.8568 65.6808 35.3718 63.5908 37.6898C61.5008 40.0078 57.7958 41.1668 52.4758 41.1668C47.1938 41.1668 43.1468 40.0648 40.3348 37.8608C37.5608 35.6568 36.1738 31.8758 36.1738 26.5178V1.77978H33.0388V0.696777H50.9938V1.77978H47.2888V28.4558Z" fill="#FDFDFD"/>
<path d="M110.651 40.5968H91.157V39.5138H94.919L86.426 24.4658L77.363 39.5138H83.405V40.5968H71.606V39.5138H75.425L85.4 22.7558L73.487 1.83678H70.409V0.696777H89.618V1.83678H85.742L93.437 15.6308L102.044 1.83678H96.116V0.696777H107.801V1.83678H104.039L94.406 17.2268L107.345 39.5138H110.651V40.5968Z" fill="#FDFDFD"/>
<path d="M124.439 28.4558C124.439 31.9518 125.028 34.6308 126.206 36.4928C127.422 38.3548 129.588 39.2858 132.704 39.2858C135.82 39.2858 138.214 38.3168 139.886 36.3788C141.558 34.4408 142.394 31.4958 142.394 27.5438V1.77978H138.689V0.696777H147.011V1.77978H143.876V27.1448C143.876 31.8568 142.831 35.3718 140.741 37.6898C138.651 40.0078 134.946 41.1668 129.626 41.1668C124.344 41.1668 120.297 40.0648 117.485 37.8608C114.711 35.6568 113.324 31.8758 113.324 26.5178V1.77978H110.189V0.696777H128.144V1.77978H124.439V28.4558Z" fill="#FDFDFD"/>
<path d="M166.597 20.4188H163.576V39.5138H167.281V40.5968H148.756V39.5138H152.461V1.77978H148.756V0.696777H165.97C170.91 0.696777 174.406 0.962777 176.458 1.49478C178.548 1.98878 180.011 2.59678 180.847 3.31878C182.671 4.80078 183.583 7.15678 183.583 10.3868C183.583 13.6168 182.785 15.9348 181.189 17.3408C179.593 18.7088 177.161 19.5258 173.893 19.7918V19.9628C176.971 20.3808 179.118 21.2928 180.334 22.6988C181.55 24.1048 182.158 26.4608 182.158 29.7668V32.7878C182.158 34.7638 182.253 36.0938 182.443 36.7778C182.671 37.4618 183.127 37.8038 183.811 37.8038C184.495 37.8038 185.027 37.4998 185.407 36.8918C185.825 36.2458 186.205 34.9158 186.547 32.9018L187.516 33.0158C187.098 36.2458 186.357 38.4118 185.293 39.5138C184.267 40.6158 182.196 41.1668 179.08 41.1668C175.964 41.1668 173.741 40.4448 172.411 39.0008C171.119 37.5188 170.473 34.7638 170.473 30.7358V26.5748C170.473 24.4468 170.188 22.8888 169.618 21.9008C169.086 20.9128 168.079 20.4188 166.597 20.4188ZM163.576 1.77978V19.3358H165.4C167.566 19.3358 169.162 18.6708 170.188 17.3408C171.252 16.0108 171.784 13.8448 171.784 10.8428V9.18978C171.784 6.18778 171.271 4.21178 170.245 3.26178C169.257 2.27378 167.661 1.77978 165.457 1.77978H163.576Z" fill="#FDFDFD"/>
<path d="M207.324 19.4498L215.418 1.60878H209.661V0.696777H220.89V1.60878H217.128L208.521 20.6468V39.5138H211.998V40.5968H193.929V39.5138H197.406V21.7298L187.716 1.60878H185.037V0.696777H203.277V1.60878H199.572L207.324 19.4498Z" fill="#FDFDFD"/>
</svg>
