<svg width="72" height="392" viewBox="0 0 72 392" fill="none" xmlns="http://www.w3.org/2000/svg">
<path d="M1.71626e-05 391.597L1.55668e-05 355.242H2.231L2.231 365.946H68.7549V362.311C68.7549 356.588 66.9972 352.044 63.4817 348.678C59.9662 345.244 54.5578 341.777 47.2563 338.276V336.155L70.9859 338.074L70.9859 391.597H68.7549V385.639L2.231 385.639L2.231 391.597H1.71626e-05Z" fill="#515151"/>
<path d="M49.3859 308.165C55.6056 308.165 60.3718 307.121 63.6845 305.034C66.9972 302.88 68.6535 299.042 68.6535 293.522C68.6535 288.001 66.9296 283.76 63.4817 280.798C60.0338 277.835 54.7944 276.354 47.7634 276.354H1.92677L1.92677 282.918H1.23922e-05L1.17451e-05 268.174H1.92677L1.92677 273.729H47.0535C55.4366 273.729 61.6901 275.58 65.8141 279.283C69.938 282.986 72 289.55 72 298.975C72 308.333 70.0394 315.503 66.1183 320.485C62.1972 325.4 55.4704 327.857 45.938 327.857H1.92677L1.92677 333.411H1.46086e-05L1.32123e-05 301.601H1.92677L1.92677 308.165H49.3859Z" fill="#515151"/>
<path d="M70.9859 195.907V230.444H69.0592V223.779L42.2873 238.826L69.0592 254.883V244.178H70.9859V265.082H69.0592V258.316L39.2451 240.644L2.02818 261.75V267.203H1.17024e-05L1.02086e-05 233.171H2.02818L2.02818 240.038L26.569 226.405L2.02818 211.156L2.02818 221.658H9.70329e-06L8.79459e-06 200.956H2.02818L2.02818 207.621L29.4085 224.688L69.0592 201.764V195.907H70.9859Z" fill="#515151"/>
<path d="M49.3859 171.478C55.6056 171.478 60.3718 170.435 63.6845 168.348C66.9972 166.193 68.6535 162.356 68.6535 156.835C68.6535 151.315 66.9296 147.073 63.4817 144.111C60.0338 141.149 54.7944 139.668 47.7634 139.668H1.92677L1.92677 146.232H6.39251e-06L5.74534e-06 131.488H1.92677L1.92677 137.042H47.0535C55.4366 137.042 61.6901 138.893 65.8141 142.596C69.938 146.299 72 152.863 72 162.289C72 171.647 70.0394 178.817 66.1183 183.799C62.1972 188.713 55.4704 191.171 45.938 191.171H1.92677L1.92677 196.725H8.60886e-06L7.21256e-06 164.914H1.92677L1.92677 171.478H49.3859Z" fill="#515151"/>
<path d="M35.0873 96.7872V102.139H69.0592V95.5753H70.9859V128.396H69.0592V121.832H1.92676L1.92677 128.396H5.60962e-06L4.27095e-06 97.898C3.88678e-06 89.1459 0.473243 82.952 1.41972 79.3165C2.2986 75.6137 3.38029 73.0217 4.66479 71.5406C7.30141 68.309 11.493 66.6932 17.2394 66.6932C22.9859 66.6932 27.1099 68.107 29.6113 70.9347C32.0451 73.7623 33.4986 78.071 33.9718 83.8609H34.2761C35.0197 78.4077 36.6423 74.6038 39.1437 72.4495C41.6451 70.2951 45.8366 69.2179 51.7183 69.2179H57.093C60.6084 69.2179 62.9746 69.0496 64.1915 68.713C65.4084 68.309 66.0169 67.5011 66.0169 66.2893C66.0169 65.0775 65.4761 64.1349 64.3944 63.4617C63.2451 62.7211 60.8789 62.0479 57.2958 61.442L57.4986 59.7252C63.2451 60.4658 67.0986 61.7786 69.0592 63.6637C71.0197 65.4814 72 69.1506 72 74.6712C72 80.1917 70.7155 84.1302 68.1465 86.4866C65.5099 88.7756 60.6084 89.9201 53.4423 89.9201H46.0394C42.2535 89.9201 39.4817 90.425 37.7239 91.4349C35.9662 92.3774 35.0873 94.1615 35.0873 96.7872ZM1.92676 102.139L33.1606 102.139V98.9079C33.1606 95.0704 31.9775 92.2428 29.6113 90.425C27.2451 88.5399 23.3916 87.5974 18.0507 87.5974H15.1099C9.76902 87.5974 6.25352 88.5063 4.56339 90.324C2.80564 92.0745 1.92676 94.9021 1.92676 98.8069L1.92676 102.139Z" fill="#515151"/>
<path d="M33.3634 24.6317L1.62254 10.2916L1.62254 20.4912H8.73241e-07L0 0.596924L1.62254 0.596924L1.62254 7.26202L35.493 22.511L69.0591 22.511V16.3508H70.9859V48.3634H69.0592V42.2033H37.4197L1.62254 59.371L1.62254 64.1173H2.78817e-06L1.36971e-06 31.8017H1.62254L1.62254 38.3658L33.3634 24.6317Z" fill="#515151"/>
</svg>
