<svg width="20" height="20" viewBox="0 0 20 20" fill="none" xmlns="http://www.w3.org/2000/svg">
<path d="M17.1902 13.3324C17.1254 13.2543 17.0617 13.1762 16.9992 13.1008C16.1398 12.0613 15.6199 11.434 15.6199 8.49141C15.6199 6.96797 15.2554 5.71797 14.5371 4.78047C14.0074 4.08789 13.2914 3.5625 12.3476 3.17422C12.3355 3.16746 12.3246 3.1586 12.3156 3.14805C11.9761 2.01133 11.0472 1.25 9.99959 1.25C8.95193 1.25 8.02342 2.01133 7.68396 3.14687C7.6749 3.15704 7.66421 3.16562 7.65232 3.17227C5.44998 4.07891 4.37967 5.81836 4.37967 8.49023C4.37967 11.434 3.86052 12.0613 3.00037 13.0996C2.93787 13.175 2.8742 13.2516 2.80935 13.3313C2.64185 13.5333 2.53573 13.779 2.50354 14.0394C2.47135 14.2999 2.51444 14.5641 2.62771 14.8008C2.86873 15.3086 3.3824 15.6238 3.96873 15.6238H16.0347C16.6183 15.6238 17.1285 15.309 17.3703 14.8035C17.4841 14.5668 17.5276 14.3023 17.4956 14.0416C17.4637 13.7809 17.3577 13.5348 17.1902 13.3324Z" fill="#FDFDFD"/>
<path d="M9.99977 18.75C10.5642 18.7495 11.1181 18.5963 11.6025 18.3066C12.0869 18.0168 12.4839 17.6014 12.7513 17.1043C12.7639 17.0805 12.7702 17.0538 12.7694 17.0269C12.7686 16.9999 12.7609 16.9736 12.747 16.9506C12.7331 16.9275 12.7134 16.9084 12.69 16.8952C12.6665 16.8819 12.64 16.875 12.613 16.875H7.38727C7.36029 16.8749 7.33374 16.8818 7.31021 16.895C7.28669 16.9082 7.26698 16.9273 7.25302 16.9504C7.23905 16.9735 7.23131 16.9998 7.23053 17.0268C7.22976 17.0537 7.23598 17.0804 7.2486 17.1043C7.51599 17.6013 7.91291 18.0167 8.39727 18.3065C8.88163 18.5962 9.43537 18.7495 9.99977 18.75Z" fill="#FDFDFD"/>
</svg>
