<svg width="20" height="22" viewBox="0 0 20 22" fill="none" xmlns="http://www.w3.org/2000/svg">
<path d="M9.029 1.5401C9.32605 1.37514 9.66022 1.28857 10 1.28857C10.3398 1.28857 10.674 1.37514 10.971 1.5401L18.486 5.7141C18.6418 5.80074 18.7716 5.92746 18.862 6.08113C18.9524 6.23479 19 6.40983 19 6.5881V14.8231C18.9999 15.1797 18.9045 15.5299 18.7235 15.8372C18.5426 16.1446 18.2828 16.3979 17.971 16.5711L10.971 20.4611C10.674 20.6261 10.3398 20.7126 10 20.7126C9.66022 20.7126 9.32605 20.6261 9.029 20.4611L2.029 16.5711C1.71736 16.398 1.45763 16.1448 1.27671 15.8377C1.0958 15.5305 1.00026 15.1806 1 14.8241V6.5881C0.999993 6.40983 1.04764 6.23479 1.13802 6.08113C1.22839 5.92746 1.3582 5.80074 1.514 5.7141L9.03 1.5401H9.029Z" stroke="#FDFDFD" stroke-width="2" stroke-linecap="round" stroke-linejoin="round"/>
<path d="M10 11V21M1 6L10 11L1 6ZM10 11L19 6L10 11Z" stroke="#FDFDFD" stroke-width="2" stroke-linejoin="round"/>
<path d="M5.5 8.5L14.5 3.5" stroke="#FDFDFD" stroke-width="2" stroke-linecap="round" stroke-linejoin="round"/>
<path d="M4 11.3281L7 13.0001" stroke="#FDFDFD" stroke-width="2" stroke-linecap="round" stroke-linejoin="round"/>
</svg>
