<svg width="23" height="17" viewBox="0 0 23 17" fill="none" xmlns="http://www.w3.org/2000/svg">
<path d="M9.13574 0C9.13574 0 1.94565 7.56745 5.11096 10.7328C8.27626 13.8981 15.8437 6.70797 15.8437 6.70797L10.0621 12.4896C8.20973 14.342 5.20646 14.342 3.35411 12.4896C1.50175 10.6373 1.50175 7.63399 3.35411 5.78163L9.13574 0Z" fill="#FDF4F4"/>
<path d="M13.291 16.5293C13.291 16.5293 20.4811 8.96185 17.3158 5.79654C14.1505 2.63123 6.58304 9.82132 6.58304 9.82132L12.3647 4.03969C14.217 2.18734 17.2203 2.18733 19.0727 4.03969C20.925 5.89205 20.925 8.89531 19.0726 10.7477L13.291 16.5293Z" fill="#FDF4F4"/>
</svg>
