<svg width="17" height="16" viewBox="0 0 17 16" fill="none" xmlns="http://www.w3.org/2000/svg">
<path d="M14.0785 2.92875C14.0141 2.86613 13.9328 2.82276 13.844 2.80377C13.7553 2.78477 13.6628 2.79093 13.5775 2.82152L3.08039 6.55142C2.98986 6.58498 2.91192 6.64465 2.85692 6.72251C2.80192 6.80037 2.77246 6.89274 2.77246 6.98735C2.77246 7.08196 2.80192 7.17434 2.85692 7.2522C2.91192 7.33006 2.98986 7.38973 3.08039 7.42329L7.17904 9.02248L10.2041 6.05721L10.8769 6.71461L7.8375 9.68454L9.47887 13.6895C9.51423 13.7763 9.57543 13.8507 9.65455 13.903C9.73367 13.9554 9.82705 13.9833 9.92261 13.9833C10.019 13.9813 10.1126 13.9509 10.191 13.896C10.2693 13.841 10.3288 13.7642 10.3616 13.6755L14.1787 3.4183C14.2112 3.33581 14.2191 3.246 14.2013 3.15932C14.1836 3.07264 14.141 2.99268 14.0785 2.92875Z" fill="#109BFF"/>
</svg>
