<svg width="20" height="20" viewBox="0 0 20 20" fill="none" xmlns="http://www.w3.org/2000/svg">
<path d="M11.5171 18.3334H8.48381C8.29375 18.3334 8.10939 18.2685 7.96131 18.1494C7.81322 18.0302 7.71031 17.8641 7.66964 17.6784L7.33047 16.1084C6.87802 15.9102 6.449 15.6623 6.05131 15.3692L4.52047 15.8567C4.33928 15.9145 4.14376 15.9086 3.96641 15.8399C3.78905 15.7713 3.64052 15.644 3.54547 15.4792L2.02547 12.8534C1.93143 12.6885 1.89613 12.4966 1.92534 12.309C1.95456 12.1215 2.04656 11.9494 2.18631 11.8209L3.37381 10.7376C3.3198 10.2468 3.3198 9.75166 3.37381 9.26091L2.18631 8.18008C2.04637 8.05156 1.95424 7.87931 1.92501 7.69157C1.89579 7.50382 1.93121 7.31172 2.02547 7.14675L3.54214 4.51925C3.63718 4.35451 3.78572 4.22724 3.96307 4.15857C4.14043 4.0899 4.33594 4.08397 4.51714 4.14175L6.04797 4.62925C6.25131 4.47925 6.46297 4.33925 6.68131 4.21258C6.89214 4.09425 7.10881 3.98675 7.33047 3.89091L7.67047 2.32258C7.71095 2.13691 7.81367 1.97065 7.9616 1.85137C8.10952 1.73209 8.29378 1.66695 8.48381 1.66675H11.5171C11.7072 1.66695 11.8914 1.73209 12.0394 1.85137C12.1873 1.97065 12.29 2.13691 12.3305 2.32258L12.6738 3.89175C12.9071 3.99508 13.1355 4.11091 13.3563 4.24008C13.5621 4.35925 13.7613 4.49008 13.953 4.63091L15.4846 4.14341C15.6657 4.08584 15.861 4.09189 16.0382 4.16055C16.2154 4.22921 16.3638 4.35636 16.4588 4.52092L17.9755 7.14842C18.1688 7.48758 18.1021 7.91675 17.8146 8.18092L16.6271 9.26425C16.6811 9.75499 16.6811 10.2502 16.6271 10.7409L17.8146 11.8242C18.1021 12.0892 18.1688 12.5176 17.9755 12.8567L16.4588 15.4842C16.3638 15.649 16.2152 15.7763 16.0379 15.8449C15.8605 15.9136 15.665 15.9195 15.4838 15.8617L13.953 15.3742C13.5556 15.667 13.1268 15.9147 12.6746 16.1126L12.3305 17.6784C12.2898 17.8639 12.187 18.03 12.0391 18.1491C11.8912 18.2682 11.7071 18.3333 11.5171 18.3334ZM9.99714 6.66675C9.11309 6.66675 8.26524 7.01794 7.64012 7.64306C7.015 8.26818 6.66381 9.11603 6.66381 10.0001C6.66381 10.8841 7.015 11.732 7.64012 12.3571C8.26524 12.9822 9.11309 13.3334 9.99714 13.3334C10.8812 13.3334 11.729 12.9822 12.3542 12.3571C12.9793 11.732 13.3305 10.8841 13.3305 10.0001C13.3305 9.11603 12.9793 8.26818 12.3542 7.64306C11.729 7.01794 10.8812 6.66675 9.99714 6.66675Z" fill="#FDFDFD"/>
</svg>
