<svg width="26" height="23" viewBox="0 0 26 23" fill="none" xmlns="http://www.w3.org/2000/svg">
<path d="M1.67873 8.35559C1.63755 8.18407 1.63579 8.00545 1.67359 7.83315C1.71139 7.66086 1.78777 7.49937 1.89698 7.36085C2.00619 7.22233 2.14539 7.11038 2.3041 7.03342C2.46282 6.95645 2.63692 6.91648 2.81332 6.9165H23.1868C23.3632 6.91648 23.5373 6.95645 23.696 7.03342C23.8547 7.11038 23.9939 7.22233 24.1032 7.36085C24.2124 7.49937 24.2887 7.66086 24.3265 7.83315C24.3643 8.00545 24.3626 8.18407 24.3214 8.35559L21.3814 20.6056C21.3202 20.8604 21.175 21.0872 20.9692 21.2494C20.7633 21.4117 20.5089 21.4999 20.2468 21.4998H5.75332C5.49124 21.4999 5.23679 21.4117 5.03097 21.2494C4.82514 21.0872 4.67993 20.8604 4.61873 20.6056L1.67873 8.35559Z" stroke="#010001" stroke-width="2" stroke-linecap="round" stroke-linejoin="round"/>
<path d="M5.41699 1.08325H10.0837V6.91659H5.41699V1.08325Z" stroke="#010001" stroke-width="2" stroke-linecap="round" stroke-linejoin="round"/>
<path d="M10.083 6.9165L13.8747 1.6665L21.1663 6.9165" stroke="#010001" stroke-width="2" stroke-linecap="round" stroke-linejoin="round"/>
<path d="M7.75 11.5833H12.4167" stroke="#010001" stroke-width="2" stroke-linecap="round"/>
</svg>
