<svg width="20" height="20" viewBox="0 0 20 20" fill="none" xmlns="http://www.w3.org/2000/svg">
<path d="M16.0417 5.0375V4.79167C16.0417 4.18388 15.8002 3.60098 15.3705 3.17121C14.9407 2.74144 14.3578 2.5 13.75 2.5H4.375C4.11763 2.50004 3.86303 2.55307 3.62705 2.65578C3.39107 2.75848 3.17876 2.90867 3.00333 3.09699C2.82791 3.28531 2.69314 3.50773 2.60741 3.7504C2.52167 3.99306 2.48681 4.25078 2.505 4.5075C2.50181 4.53265 2.50014 4.55798 2.5 4.58333V14.7917C2.5 15.51 2.78534 16.1988 3.29325 16.7067C3.80116 17.2147 4.49004 17.5 5.20833 17.5H15.625C16.2328 17.5 16.8157 17.2586 17.2455 16.8288C17.6752 16.399 17.9167 15.8161 17.9167 15.2083V7.29167C17.9168 6.75604 17.7294 6.23727 17.3868 5.82548C17.0443 5.41369 16.5684 5.13489 16.0417 5.0375ZM4.375 3.75H13.75C14.325 3.75 14.7917 4.21667 14.7917 4.79167V5H4.375C4.20924 5 4.05027 4.93415 3.93306 4.81694C3.81585 4.69973 3.75 4.54076 3.75 4.375C3.75 4.20924 3.81585 4.05027 3.93306 3.93306C4.05027 3.81585 4.20924 3.75 4.375 3.75ZM13.5417 10.8333H15.2083C15.3741 10.8333 15.5331 10.8992 15.6503 11.0164C15.7675 11.1336 15.8333 11.2926 15.8333 11.4583C15.8333 11.6241 15.7675 11.7831 15.6503 11.9003C15.5331 12.0175 15.3741 12.0833 15.2083 12.0833H13.5417C13.3759 12.0833 13.2169 12.0175 13.0997 11.9003C12.9825 11.7831 12.9167 11.6241 12.9167 11.4583C12.9167 11.2926 12.9825 11.1336 13.0997 11.0164C13.2169 10.8992 13.3759 10.8333 13.5417 10.8333Z" fill="#FDFDFD"/>
</svg>
