<svg width="23" height="22" viewBox="0 0 23 22" fill="none" xmlns="http://www.w3.org/2000/svg">
<g clip-path="url(#clip0_1_16453)">
<path d="M20.4543 12.6811C18.4465 6.20841 11.7446 2.34099 5.13771 3.8381C4.88926 3.89439 4.73965 4.14621 4.80655 4.39203L5.16227 5.6989C5.22594 5.93345 5.46439 6.07534 5.70168 6.02265C11.1273 4.82049 16.6087 7.98423 18.2807 13.2851C18.3537 13.517 18.596 13.6523 18.8308 13.5904L20.1404 13.245C20.3865 13.1799 20.5298 12.9245 20.4543 12.6811ZM10.0283 13.0534C9.16866 12.557 8.06965 12.8515 7.57332 13.7112C7.07698 14.5709 7.37146 15.6699 8.23114 16.1662C9.09081 16.6626 10.1898 16.3681 10.6862 15.5084C11.1825 14.6487 10.888 13.5497 10.0283 13.0534ZM16.1307 13.8662C14.7589 9.76901 10.5027 7.31528 6.27325 8.17495C6.0198 8.22641 5.86576 8.48086 5.93435 8.72993L6.29466 10.0401C6.35745 10.2683 6.58676 10.4137 6.81966 10.3691C9.88017 9.78302 12.937 11.5531 13.957 14.4899C14.0349 14.7139 14.2753 14.84 14.5045 14.7801L15.8193 14.437C16.0695 14.372 16.2128 14.111 16.1307 13.8662Z" fill="white"/>
</g>
<defs>
<clipPath id="clip0_1_16453">
<rect width="17.972" height="14.3776" fill="white" transform="translate(7.18848) rotate(30)"/>
</clipPath>
</defs>
</svg>
